<svg xmlns="http://www.w3.org/2000/svg" id="Party_1" viewBox="63.06222152709961 -0.004970550537109375 474.8821716308594 373.67962646484375"><path xmlns="http://www.w3.org/2000/svg" d="m198.24,22.31l15.53,1.34s-4.73,13.07,1.25,12.88c5.98-.19.13-14.96.13-14.96l-13.9-.97,2.76-11.59-7.11.91,1.33,12.39Z"></path><path xmlns="http://www.w3.org/2000/svg" d="m215.81,21.24h0c.43,1.11,4.18,10.84,1.87,14.57-.58.94-1.51,1.46-2.67,1.49-1.28.04-2.29-.45-2.92-1.42-1.84-2.84-.12-9.08.68-11.54l-14.62-1.27c-.33-.03-.6-.3-.64-.65l-1.33-12.39c-.02-.21.04-.41.16-.58.12-.16.3-.27.5-.3l7.11-.91c.23-.03.46.06.61.24.15.18.21.44.15.68l-2.56,10.72,13.06.92c.26.02.48.18.59.43Zm-2.74,13.32c.06.15.14.29.22.42.37.57.92.82,1.74.8.68-.02,1.14-.27,1.46-.77,1.52-2.45-.68-9.62-1.84-12.69l-13.46-.94c-.21-.01-.4-.13-.52-.3-.12-.18-.16-.41-.11-.63l2.51-10.54-5.35.69,1.18,11,14.96,1.3c.22.02.42.15.54.35.11.2.13.45.05.67-.79,2.17-2.46,8.07-1.37,10.65Z"></path><path xmlns="http://www.w3.org/2000/svg" d="m214.79,191.94l13.84,11.63s-12.02,10.29-6.28,14.05,8.78-15.27,8.78-15.27l-12.51-10.17,9.31-10.08-7.22-3.76-5.92,13.6Z"></path><path xmlns="http://www.w3.org/2000/svg" d="m226.69,217.45c-.44.51-.92.91-1.42,1.18-1.09.58-2.26.5-3.38-.23-1.22-.8-1.89-1.97-1.93-3.39-.11-4.12,5.15-9.4,7.32-11.4l-13.03-10.95c-.3-.25-.39-.7-.22-1.09l5.92-13.6c.1-.23.27-.4.49-.49.21-.09.44-.08.64.02l7.22,3.76c.24.12.4.37.44.66s-.04.56-.25.8l-8.61,9.32,11.76,9.56c.24.19.36.52.3.85-.2,1.25-1.87,11.12-5.24,14.99Zm-1.35-9.41c-1.95,2.24-3.78,4.89-3.73,6.83.02.83.4,1.45,1.17,1.96.65.43,1.23.48,1.82.17,2.85-1.52,4.93-10.33,5.61-14.24l-12.12-9.85c-.19-.15-.3-.39-.31-.66,0-.26.11-.54.26-.71l8.46-9.16-5.44-2.83-5.26,12.08,13.33,11.21c.2.17.31.43.3.71,0,.28-.13.55-.34.73-.89.76-2.36,2.15-3.77,3.77Z"></path><path xmlns="http://www.w3.org/2000/svg" d="m477.97,97.64l7.89,11.41s-10.68,2.15-7.98,5.85c3.47,4.75,9.98-5.7,9.98-5.7l-8.78-12.59-1.11,1.02Z"></path><path xmlns="http://www.w3.org/2000/svg" d="m479.98,116.68c-1-.03-1.86-.53-2.55-1.48-.55-.75-.68-1.54-.4-2.28.9-2.35,5.9-3.75,7.92-4.23l-7.45-10.77c-.15-.22-.12-.51.07-.69l1.11-1.02c.12-.11.28-.15.44-.14.16.02.31.11.41.25l8.78,12.59c.12.18.13.4.02.58-.18.29-4.49,7.14-8.23,7.18-.05,0-.09,0-.14,0Zm-1.28-18.95l7.63,11.03c.1.15.13.34.06.5s-.21.28-.39.32c-1.95.39-7.18,1.84-7.92,3.75-.16.41-.08.82.25,1.27.5.68,1.06,1,1.73,1,2.47-.03,5.82-4.38,7.13-6.4l-8.2-11.75-.31.28Z"></path><path xmlns="http://www.w3.org/2000/svg" d="m159.16,164.71l-11,9.07,2.2,2.6.42-.34,6.07,7.3s-8.92,2.44-6.47,5.22c3.14,3.57,8.17-5.23,8.17-5.23l-6.78-8.08,8.14-6.53,6.3,7.57s-8.92,2.44-6.47,5.22c3.14,3.57,8.17-5.23,8.17-5.23l-7.01-8.34.56-.45-2.31-2.77Z"></path><path xmlns="http://www.w3.org/2000/svg" d="m165.14,180.86c-1.04,1.04-2.24,1.88-3.42,1.99-.63.06-1.57-.08-2.41-1.03-.65-.74-.6-1.42-.45-1.87.65-1.94,4.68-3.38,6.44-3.93l-5.46-6.56-7.3,5.85,6.46,7.7c.13.16.15.37.05.55-.35.62-3.55,6.06-6.69,6.35-.63.06-1.57-.08-2.41-1.03-.65-.74-.6-1.42-.45-1.87.65-1.93,4.68-3.38,6.44-3.93l-5.24-6.29c-.11.08-.25.12-.39.1-.15-.01-.29-.08-.39-.19l-2.2-2.6c-.18-.21-.15-.51.07-.69l11-9.07c.12-.1.27-.14.42-.13.16.01.3.08.39.2l2.31,2.77c.18.21.14.52-.08.69l-.17.14,6.69,7.96c.13.16.15.37.05.55-.22.39-1.54,2.64-3.26,4.36Zm-4.76-1.28c-.22.22-.38.45-.46.67-.07.2-.11.51.25.93.43.49.9.7,1.43.66,2.03-.18,4.61-3.81,5.64-5.52l-6.79-8.08c-.18-.21-.14-.52.07-.7l.17-.14-1.62-1.95-10.16,8.38,1.52,1.8c.11-.08.26-.12.4-.11.15.01.29.09.39.2l6.08,7.3c.11.13.14.31.09.47-.05.16-.19.28-.37.33-2.25.62-5.99,2.11-6.46,3.48-.07.2-.11.51.25.93.43.49.9.7,1.43.66,2.03-.18,4.61-3.81,5.64-5.52l-6.56-7.81c-.18-.21-.13-.53.07-.69l8.14-6.53c.12-.09.27-.14.42-.12.15.01.29.09.39.2l6.3,7.57c.11.13.14.31.09.47-.06.16-.19.28-.37.33-1.89.52-4.83,1.65-6,2.82Z"></path><path xmlns="http://www.w3.org/2000/svg" d="m254.04,138.59l4.32-10.77s7.56,6.33,8.76,2.02c1.2-4.31-9.82-3.47-9.82-3.47l-3.71,9.69-7.02-4.59-.97,5.28,8.45,1.85Z"></path><path xmlns="http://www.w3.org/2000/svg" d="m257.22,125.83h.01c.82-.06,8.05-.53,10,1.96.49.63.63,1.4.39,2.24-.25.92-.8,1.53-1.58,1.76-2.29.68-6.01-1.97-7.45-3.1l-4.06,10.14c-.09.23-.33.36-.57.31l-8.45-1.85c-.14-.03-.26-.12-.35-.24-.08-.13-.11-.28-.09-.42l.97-5.28c.03-.17.14-.32.3-.38.15-.07.33-.05.48.05l6.5,4.25,3.49-9.1c.07-.18.23-.3.41-.32Zm8.16,4.96c.11-.01.22-.03.32-.06.46-.14.74-.47.91-1.06.14-.49.08-.88-.19-1.21-1.28-1.64-6.49-1.69-8.76-1.56l-3.6,9.38c-.06.15-.17.26-.32.3-.15.05-.3.02-.44-.06l-6.39-4.17-.73,3.97,7.51,1.64,4.16-10.37c.06-.15.19-.27.35-.3.16-.04.32,0,.45.11,1.26,1.05,4.77,3.58,6.71,3.39Z"></path><path xmlns="http://www.w3.org/2000/svg" d="m324.83,81.48l-13.1,4.39s.26-10.84-4.01-9.28c-5.5,2,3.41,11.15,3.41,11.15l14.46-4.91-.76-1.35Z"></path><path xmlns="http://www.w3.org/2000/svg" d="m305.48,78.09c.26-.95.94-1.63,2.04-2.03.86-.32,1.68-.23,2.35.25,2.13,1.52,2.4,6.7,2.42,8.77l12.35-4.14c.25-.09.54.02.67.26l.76,1.35c.08.14.09.31.04.46-.06.15-.18.27-.33.32l-14.46,4.91c-.2.07-.43.01-.58-.14-.25-.26-6.08-6.29-5.28-9.88.01-.05.02-.09.03-.14Zm19.09,4.05l-12.66,4.24c-.17.06-.36.03-.51-.08s-.23-.28-.23-.46c.05-1.98-.21-7.39-1.94-8.63-.37-.27-.79-.3-1.32-.11-.79.29-1.23.72-1.38,1.38-.53,2.38,3.04,6.8,4.75,8.62l13.5-4.58-.21-.37Z"></path><path xmlns="http://www.w3.org/2000/svg" d="m337.83,113.79l-18.93,10.98s-2.71-16.8-8.85-13.02c-7.9,4.86,8.45,16.1,8.45,16.1l20.88-12.22-1.56-1.84Z"></path><path xmlns="http://www.w3.org/2000/svg" d="m307.94,118.43c-.6-1.16-.95-2.31-.92-3.41.06-1.64.92-2.99,2.57-4.01,1.24-.76,2.52-.89,3.7-.36,3.71,1.66,5.61,9.57,6.24,12.75l17.86-10.36c.37-.21.83-.14,1.1.18l1.56,1.84c.16.2.23.45.19.7-.04.25-.2.47-.42.6l-20.88,12.22c-.29.17-.66.16-.94-.03-.37-.25-7.48-5.19-10.06-10.14Zm7.11-3.33c-.72-1.38-1.55-2.46-2.48-2.87-.65-.29-1.31-.21-2.06.25-1.13.7-1.7,1.54-1.73,2.57-.13,3.84,6.64,9.51,9.79,11.76l19.5-11.41-.43-.5-18.3,10.61c-.25.15-.55.16-.81.04-.26-.12-.44-.36-.48-.64-.34-2.12-1.38-6.73-2.98-9.82Z"></path><path xmlns="http://www.w3.org/2000/svg" d="m333.17,213.76l-9.08,9.43s-4.65-9.71-7.55-6.52c-3.73,4.1,7.88,8.43,7.88,8.43l9.99-10.47-1.25-.87Z"></path><path xmlns="http://www.w3.org/2000/svg" d="m324.2,225.58c-.81-.31-7.93-3.11-8.83-6.49-.27-1,0-1.94.77-2.79.59-.65,1.31-.91,2.1-.77,2.5.45,5.03,4.92,5.98,6.74l8.56-8.89c.18-.18.47-.2.68-.05l1.25.87c.13.09.22.24.24.4.02.16-.03.32-.14.43l-9.99,10.47c-.14.15-.36.2-.55.12l-.06-.02Zm-5.78-8.91c-.11-.04-.21-.07-.32-.09-.44-.08-.8.07-1.16.46-.53.59-.71,1.18-.54,1.81.62,2.33,5.62,4.73,7.87,5.62l9.33-9.77-.34-.24-8.77,9.11c-.12.12-.29.18-.47.14-.17-.03-.32-.15-.4-.31-.81-1.68-3.23-5.98-5.2-6.73Z"></path><path xmlns="http://www.w3.org/2000/svg" d="m339.92,20.49l6.12,18.89,4.2-1.19-.22-.72,11.74-3.22s-1.06,12.44,3.46,11.05c5.82-1.78-2.7-13.15-2.7-13.15l-13.02,3.63-4.31-13.88,12.17-3.34s-1.06,12.44,3.46,11.05c5.82-1.78-2.7-13.15-2.7-13.15l-13.45,3.76-.3-.96-4.45,1.23Z"></path><path xmlns="http://www.w3.org/2000/svg" d="m360.9,19.44c1.53,2.61,3.13,6.12,2.48,8.53-.22.82-.81,1.89-2.37,2.37-1.2.37-2.02-.09-2.5-.54-2.07-1.92-2.02-7.76-1.9-10.26l-10.55,2.89,3.86,12.45,12.4-3.46c.25-.07.53.03.7.26.6.8,5.84,7.94,4.75,11.98-.22.82-.81,1.89-2.37,2.37-1.2.37-2.02-.09-2.5-.54-2.08-1.93-2.02-7.76-1.9-10.26l-10.12,2.77c.05.19.03.38-.05.55-.09.18-.24.31-.42.36l-4.2,1.19c-.34.1-.7-.11-.82-.49l-6.12-18.89c-.06-.2-.05-.42.04-.6.09-.18.24-.31.42-.37l4.45-1.22c.34-.09.7.12.82.5l.09.29,12.84-3.59c.25-.07.53.03.7.26.24.32,1.24,1.68,2.27,3.44Zm-1.92,8.73c.12.2.25.37.39.5.21.2.58.44,1.26.23.8-.24,1.27-.7,1.46-1.38.7-2.62-2.58-7.93-4.21-10.2l-13.03,3.64c-.34.1-.7-.12-.82-.5l-.09-.29-3.13.86,5.66,17.46,2.9-.82c-.05-.19-.03-.39.05-.55.09-.18.24-.31.42-.36l11.74-3.22c.21-.06.44,0,.61.17.17.16.26.41.24.65-.27,3.14-.14,8.62,1.34,10.01.21.2.57.44,1.26.23.8-.24,1.27-.7,1.46-1.38.7-2.62-2.58-7.93-4.21-10.2l-12.59,3.52c-.34.1-.7-.12-.82-.5l-4.31-13.88c-.06-.2-.05-.41.04-.59.09-.18.24-.31.42-.36l12.17-3.34c.21-.06.44,0,.61.17.17.16.26.41.24.65-.24,2.84-.16,7.61.95,9.51Z"></path><path xmlns="http://www.w3.org/2000/svg" d="m431.5,102.55l-11.37-.25s2.54-9.23-1.79-8.84c-4.33.39.93,10.33.93,10.33l10.16.07-1.21,8.12,5.1-.94-1.82-8.49Z"></path><path xmlns="http://www.w3.org/2000/svg" d="m416.38,94.24c.03-.06.05-.12.08-.17.36-.68.99-1.07,1.83-1.15.92-.08,1.69.21,2.22.86,1.54,1.87.71,6.26.3,8l10.7.24c.24,0,.45.18.51.42l1.82,8.49c.03.14,0,.28-.08.41-.08.12-.2.2-.34.23l-5.1.94c-.17.03-.34-.02-.46-.14-.12-.12-.18-.29-.16-.46l1.12-7.51-9.55-.06c-.19,0-.37-.11-.46-.28-.38-.72-3.64-7.02-2.44-9.79Zm14.7,8.83l-10.95-.24c-.16,0-.32-.08-.41-.22-.1-.13-.13-.3-.09-.46.45-1.63,1.33-6.17.08-7.69-.31-.37-.73-.53-1.31-.47-.49.04-.81.23-1.01.6-.96,1.78,1.16,6.61,2.21,8.68l9.84.07c.15,0,.3.07.4.19.1.12.14.27.12.43l-1.1,7.38,3.84-.71-1.62-7.54Z"></path><path xmlns="http://www.w3.org/2000/svg" d="m390.85,224.75l5.11,9.98s-9.48,2.18-7.1,5.75c2.38,3.57,8.84-5.72,8.84-5.72l-4.71-8.84,7.87-2.81-3.24-3.98-6.78,5.61Z"></path><path xmlns="http://www.w3.org/2000/svg" d="m395.27,238.61c-1.53,1.63-3.41,3.2-4.97,3.22-.78,0-1.43-.35-1.89-1.05-.51-.76-.6-1.57-.28-2.33.95-2.23,5.29-3.59,7.05-4.06l-4.81-9.39c-.11-.21-.05-.48.14-.64l6.78-5.61c.11-.09.26-.14.4-.13.14.01.28.08.36.19l3.24,3.98c.11.13.14.31.09.47-.05.16-.18.3-.34.35l-7.28,2.6,4.43,8.31c.09.17.08.37-.04.54-.24.34-1.39,1.97-2.88,3.55Zm-5.7-.43c-.2.21-.35.42-.44.65-.19.45-.13.88.19,1.36.27.41.59.59,1.01.59,2.02-.02,5.4-4.14,6.76-6.04l-4.56-8.56c-.07-.13-.08-.29-.02-.43.06-.14.18-.26.33-.31l7.15-2.55-2.44-2.99-6.02,4.98,4.93,9.61c.07.14.07.31,0,.46-.07.15-.21.25-.37.29-1.46.34-5.11,1.45-6.5,2.94Z"></path><path xmlns="http://www.w3.org/2000/svg" d="m347.52,306.49l-6.92-9.37s8.71-3.76,5.7-7.02c-3.01-3.26-7.39,7.27-7.39,7.27l6.31,8.27-7.03,4.14,3.92,3.54,5.42-6.83Z"></path><path xmlns="http://www.w3.org/2000/svg" d="m343.62,289.38c.34-.21.68-.36,1.03-.42.75-.13,1.45.13,2.03.76.64.7.9,1.5.73,2.34-.48,2.43-4.39,4.52-5.99,5.28l6.52,8.82c.15.2.15.48,0,.68l-5.42,6.83c-.09.12-.22.18-.36.19-.14.01-.28-.04-.39-.13l-3.92-3.54c-.13-.12-.2-.29-.18-.46s.09-.32.26-.42l6.5-3.83-5.93-7.77c-.12-.16-.15-.37-.07-.55.29-.69,2.61-6.14,5.19-7.76Zm-.43,5.74c1.49-.94,2.96-2.15,3.19-3.29.1-.49-.05-.92-.46-1.36-.34-.37-.69-.51-1.09-.44-1.95.35-4.38,5.1-5.32,7.26l6.11,8.01c.1.12.13.29.11.44-.03.16-.13.29-.25.37l-6.39,3.76,2.95,2.67,4.81-6.06-6.67-9.03c-.1-.13-.13-.31-.09-.47.04-.16.16-.29.3-.36.64-.28,1.73-.82,2.8-1.49Z"></path><path xmlns="http://www.w3.org/2000/svg" d="m313.92,267.43l-10.98-4.4s5.41-7.82,1.07-9.04c-4.34-1.22-2.38,10.14-2.38,10.14l9.86,3.78-3.77,7.26,5.26.98.94-8.72Z"></path><path xmlns="http://www.w3.org/2000/svg" d="m301.33,254.79c.17-.36.39-.67.65-.9.56-.51,1.31-.65,2.15-.42.93.26,1.58.82,1.89,1.62.9,2.34-1.31,6.2-2.26,7.69l10.34,4.15c.24.09.38.34.36.58l-.94,8.72c-.02.15-.09.27-.2.36-.11.08-.26.12-.4.09l-5.26-.98c-.17-.03-.32-.15-.4-.3s-.1-.32,0-.5l3.48-6.71-9.27-3.56c-.19-.07-.33-.24-.36-.44-.13-.74-1.09-6.65.24-9.4Zm2.74,5.16c.77-1.59,1.37-3.4.94-4.51-.18-.47-.54-.76-1.13-.93-.49-.14-.87-.08-1.17.2-1.48,1.33-.98,6.69-.62,9.03l9.55,3.67c.15.06.27.18.33.32.06.15.04.32-.02.45l-3.42,6.6,3.96.74.83-7.74-10.58-4.24c-.16-.06-.28-.19-.33-.36-.05-.16-.03-.33.06-.47.4-.58,1.03-1.61,1.58-2.76Z"></path><path xmlns="http://www.w3.org/2000/svg" d="m376.37,146.16l-2.32,12.99s-9.01-5.94-9.66-1.63c-.84,5.54,10.96,3.11,10.96,3.11l2.51-14.37-1.49-.09Z"></path><path xmlns="http://www.w3.org/2000/svg" d="m364.64,160.14c-.68-.71-.94-1.63-.78-2.73.13-.87.58-1.49,1.3-1.78,2.26-.93,6.75,1.59,8.5,2.66l2.19-12.25c.04-.25.27-.42.52-.41l1.49.09c.16.01.3.09.41.22.1.13.14.29.12.44l-2.51,14.37c-.04.2-.19.36-.39.4-.33.07-8.1,1.63-10.75-.92-.03-.03-.07-.06-.1-.1Zm12.18-13.41l-2.24,12.55c-.03.17-.14.31-.3.37-.16.06-.34.04-.49-.06-1.65-1.09-6.33-3.74-8.17-2.98-.4.16-.62.49-.7,1.01-.12.79.06,1.4.53,1.86,1.76,1.69,7.13,1.11,9.44.68l2.34-13.42-.41-.03Z"></path><path xmlns="http://www.w3.org/2000/svg" d="m396.47,327.75l-10.04,8.8s-4.21-9.28-7.43-6.31c-4.14,3.83,7.66,8.13,7.66,8.13l11.05-9.77-1.24-.85Z"></path><path xmlns="http://www.w3.org/2000/svg" d="m378.71,334.36c-.55-.58-.94-1.2-1.08-1.84-.21-.95.12-1.84.98-2.64.65-.6,1.42-.84,2.23-.7,2.54.46,4.92,4.75,5.78,6.49l9.47-8.3c.19-.17.49-.19.71-.04l1.24.85c.13.09.21.23.22.38.01.15-.05.3-.17.4l-11.06,9.77c-.16.14-.38.18-.59.11-.27-.1-5.41-1.99-7.75-4.49Zm3.89-2.85c-.65-.7-1.33-1.21-1.97-1.32-.45-.08-.84.05-1.23.42-.59.55-.82,1.11-.68,1.71.5,2.22,5.54,4.58,7.83,5.46l10.32-9.12-.34-.23-9.7,8.5c-.13.12-.32.16-.49.13-.18-.04-.32-.15-.4-.3-.53-1.17-1.87-3.68-3.33-5.24Z"></path><path xmlns="http://www.w3.org/2000/svg" d="m536.1,206.94l-9.21,9.56s-4.92-8.91-7.87-5.69c-3.79,4.14,8.24,7.48,8.24,7.48l10.13-10.6-1.3-.75Z"></path><path xmlns="http://www.w3.org/2000/svg" d="m519.07,214.92c-.59-.54-1.03-1.12-1.22-1.74-.29-.93-.03-1.84.76-2.71.6-.65,1.34-.95,2.15-.87,2.55.26,5.25,4.34,6.25,6.01l8.68-9.02c.18-.19.47-.23.7-.1l1.3.75c.14.08.23.21.25.36.02.15-.03.3-.14.41l-10.13,10.6c-.14.15-.37.21-.57.15-.27-.08-5.51-1.55-8.03-3.86Zm3.61-3.14c-.7-.64-1.41-1.1-2.06-1.16-.45-.04-.83.12-1.19.51-.54.59-.72,1.17-.54,1.75.67,2.17,5.85,4.12,8.18,4.82l9.46-9.9-.36-.2-8.9,9.24c-.12.13-.3.19-.48.17-.18-.02-.33-.12-.42-.27-.62-1.13-2.15-3.51-3.72-4.95Z"></path><path xmlns="http://www.w3.org/2000/svg" d="m447.46,162.85l-5.33,18.16s-12.33-9.28-13.92-3.25c-2.05,7.76,15.61,5.47,15.61,5.47l5.81-20.1-2.17-.28Z"></path><path xmlns="http://www.w3.org/2000/svg" d="m431.05,183.31c-1.12-.4-2.07-.94-2.74-1.67-1-1.1-1.29-2.47-.86-4.09.32-1.22,1.07-2.05,2.16-2.4,3.44-1.1,9.65,2.9,12.07,4.59l5.03-17.13c.1-.35.45-.57.83-.53l2.17.28c.23.03.44.16.56.35.13.19.17.42.11.64l-5.81,20.1c-.08.28-.33.49-.63.53-.4.05-8.11,1.02-12.89-.67Zm2.5-6.3c-1.33-.47-2.55-.68-3.42-.41-.61.19-.98.63-1.17,1.37-.29,1.11-.13,1.98.5,2.68,2.33,2.56,10.28,2.27,13.74,1.88l5.42-18.77-.59-.08-5.15,17.55c-.07.24-.26.43-.5.5-.24.07-.51.02-.72-.13-1.56-1.17-5.13-3.54-8.11-4.6Z"></path><path xmlns="http://www.w3.org/2000/svg" d="m450.72,307.39l-20.36,1.02s5.1-15.7-1.6-15.18c-8.62.67-.07,17.67-.07,17.67l22.51-1.22-.48-2.28Z"></path><path xmlns="http://www.w3.org/2000/svg" d="m424.11,298.05c0-1.27.22-2.42.73-3.35.76-1.39,2.06-2.17,3.86-2.31,1.35-.11,2.46.36,3.2,1.34,2.33,3.08.45,10.76-.43,13.79l19.21-.96c.4-.02.74.25.83.65l.48,2.28c.05.24,0,.49-.15.69-.15.2-.37.32-.61.33l-22.51,1.22c-.32.02-.61-.16-.76-.45-.19-.38-3.89-7.82-3.85-13.24Zm7.29.31c.01-1.51-.2-2.81-.79-3.59-.41-.54-.98-.77-1.8-.7-1.23.09-2.07.57-2.55,1.45-1.79,3.25,1.31,11.17,2.92,14.52l21.01-1.14-.13-.62-19.68.99c-.27.01-.52-.11-.68-.33-.16-.22-.2-.51-.12-.77.64-1.98,1.8-6.42,1.82-9.8Z"></path><path xmlns="http://www.w3.org/2000/svg" d="m412.37,340.99l10.08,8.13s-8.82,5.35-5.43,7.93c4.36,3.33,7.24-8.41,7.24-8.41l-11.18-8.94-.7,1.29Z"></path><path xmlns="http://www.w3.org/2000/svg" d="m424.75,348.82c-.21.82-2.11,8.02-5.26,9.18-.93.34-1.86.16-2.78-.53-.69-.52-1.02-1.21-.97-1.99.15-2.45,4.17-5.33,5.82-6.41l-9.51-7.67c-.2-.16-.25-.44-.13-.66l.7-1.29c.07-.14.2-.23.35-.27.15-.03.31,0,.43.1l11.19,8.94c.16.13.23.33.18.53l-.02.06Zm-7.93,6.39c-.03.11-.05.22-.05.32-.03.43.15.78.57,1.1.62.48,1.21.6,1.8.39,2.18-.8,3.93-5.89,4.53-8.17l-10.44-8.34-.19.35,9.74,7.85c.13.11.2.27.19.45-.01.16-.11.33-.26.42-1.53.93-5.4,3.65-5.9,5.64Z"></path><path xmlns="http://www.w3.org/2000/svg" d="m471.42,269.93l10.66-10.76-2.3-2.45-.41.4-6.36-6.89s8.83-3.6,6.28-6.21c-3.28-3.36-7.98,6.43-7.98,6.43l7.09,7.62-7.9,7.78-6.59-7.15s8.83-3.6,6.28-6.21c-3.28-3.36-7.98,6.43-7.98,6.43l7.33,7.88-.55.54,2.41,2.61Z"></path><path xmlns="http://www.w3.org/2000/svg" d="m477.22,242.85h.05c.63-.15,1.57-.12,2.45.78.68.69.66,1.41.52,1.9-.58,2.09-4.56,4.09-6.3,4.87l5.48,5.94c.11-.1.25-.15.39-.15.15,0,.3.05.39.16l2.3,2.45c.19.2.17.52-.04.73l-10.66,10.76c-.11.11-.26.18-.42.18-.16,0-.3-.05-.4-.16l-2.41-2.61c-.19-.2-.16-.52.05-.73l.17-.16-7-7.52c-.14-.15-.17-.37-.07-.56.33-.68,3.29-6.68,6.4-7.4h.05c.63-.15,1.57-.12,2.45.78.68.69.66,1.41.52,1.9-.58,2.09-4.56,4.09-6.3,4.87l5.72,6.2,7.09-6.97-6.76-7.27c-.14-.15-.17-.37-.07-.56.33-.68,3.29-6.68,6.4-7.4Zm2.24,14.79s-.08.01-.12.02c-.15,0-.3-.05-.39-.16l-6.36-6.89c-.12-.13-.15-.31-.1-.48.05-.17.18-.32.36-.39,2.23-.91,5.92-2.91,6.33-4.4.06-.21.09-.54-.29-.94-.45-.46-.93-.63-1.46-.52h-.03c-2.02.48-4.44,4.53-5.4,6.42l6.86,7.38c.19.2.17.52-.05.73l-7.9,7.78c-.11.11-.26.17-.42.18-.15,0-.3-.05-.39-.16l-6.59-7.15c-.12-.13-.15-.31-.1-.48.05-.17.18-.32.36-.39,2.23-.91,5.92-2.91,6.33-4.4.06-.21.09-.54-.29-.94-.45-.46-.93-.63-1.46-.52-1.99.47-4.47,4.52-5.44,6.42l7.1,7.63c.19.2.17.52-.05.73l-.17.16,1.7,1.84,9.85-9.94-1.59-1.7c-.08.07-.17.12-.27.14Z"></path><path xmlns="http://www.w3.org/2000/svg" d="m499.49,314.95l-4.46,14.3,3.17,1.1.18-.54,8.82,3.14s-6.15,7.19-2.69,8.31c4.46,1.44,4.09-9.27,4.09-9.27l-9.81-3.44,3.4-10.42,9.14,3.25s-6.15,7.19-2.69,8.31c4.46,1.44,4.09-9.27,4.09-9.27l-10.13-3.55.24-.72-3.35-1.19Z"></path><path xmlns="http://www.w3.org/2000/svg" d="m506.88,341.33l-.04.03c-.5.41-1.34.81-2.54.43-.92-.3-1.24-.94-1.34-1.42-.45-2.1,2.15-5.66,3.32-7.14l-7.6-2.7c-.05.13-.15.25-.27.31-.13.07-.29.09-.42.04l-3.17-1.1c-.26-.09-.39-.38-.3-.66l4.46-14.3c.05-.15.15-.28.29-.35.14-.07.29-.09.43-.04l3.35,1.19c.26.09.39.38.29.67l-.07.22,9.67,3.39c.19.07.32.25.33.46.02.75.18,7.36-2.24,9.41l-.04.03c-.5.41-1.34.81-2.54.43-.92-.3-1.24-.94-1.34-1.42-.45-2.1,2.15-5.66,3.32-7.14l-7.93-2.82-3.05,9.35,9.35,3.28c.19.07.32.25.33.46.02.75.18,7.36-2.24,9.41Zm-8.83-11.94s.06-.05.1-.07c.13-.07.29-.09.42-.04l8.82,3.14c.16.06.28.2.31.37.04.17-.02.36-.14.5-1.55,1.82-3.89,5.25-3.57,6.75.05.22.17.52.69.69.61.2,1.11.13,1.53-.21l.03-.02c1.57-1.34,1.84-5.99,1.82-8.09l-9.49-3.33c-.26-.09-.39-.38-.3-.66l3.4-10.42c.05-.15.15-.27.29-.35.13-.07.29-.09.42-.04l9.14,3.25c.16.06.28.2.31.37.04.17-.02.36-.14.5-1.55,1.82-3.89,5.25-3.57,6.75.05.22.17.52.69.69.61.2,1.11.13,1.53-.21,1.55-1.32,1.87-6,1.84-8.11l-9.82-3.44c-.26-.09-.39-.38-.3-.67l.07-.22-2.36-.84-4.12,13.22,2.19.76c.04-.1.1-.18.18-.25Z"></path><path xmlns="http://www.w3.org/2000/svg" d="m254.68,322.19l-1.13-11.49s9.34,1.86,8.43-2.48-10,1.72-10,1.72l1.17,10.25-8.09-.61,1.54,5.08,8.09-2.48Z"></path><path xmlns="http://www.w3.org/2000/svg" d="m260.97,306.3c.06.02.12.04.18.07.7.31,1.17.92,1.35,1.76.19.93,0,1.72-.57,2.3-1.64,1.7-6.04,1.19-7.79.91l1.07,10.82c.02.25-.12.47-.35.54l-8.09,2.48c-.13.04-.28.02-.41-.05-.13-.07-.22-.19-.26-.33l-1.54-5.08c-.05-.17-.02-.34.08-.48.1-.13.26-.21.43-.19l7.49.56-1.1-9.64c-.02-.2.06-.38.22-.49.66-.44,6.42-4.2,9.28-3.2Zm-6.85,15.5l-1.09-11.07c-.02-.16.04-.32.16-.43.12-.11.28-.15.44-.12,1.64.33,6.2.87,7.54-.5.33-.34.43-.77.3-1.36-.1-.49-.33-.8-.7-.97-1.86-.8-6.33,1.67-8.22,2.88l1.13,9.93c.02.15-.03.31-.14.42-.1.11-.25.17-.4.16l-7.36-.55,1.16,3.82,7.19-2.2Z"></path><path xmlns="http://www.w3.org/2000/svg" d="m151.8,254.82l10.58,3.05s-5.03,8.45-.86,9.13c4.17.68,2.1-10.39,2.1-10.39l-9.49-2.57,3.47-7.69-5.05-.33-.74,8.8Z"></path><path xmlns="http://www.w3.org/2000/svg" d="m164.11,256.47h0c.15.83,1.44,8.11-.66,10.39-.53.58-1.24.81-2.05.68-.89-.15-1.52-.63-1.83-1.39-.91-2.25,1.14-6.33,2.02-7.94l-9.95-2.87c-.23-.06-.38-.29-.35-.54l.74-8.8c.01-.15.08-.28.19-.38.11-.1.25-.15.39-.14l5.05.33c.17.01.31.1.39.25s.09.33.01.49l-3.21,7.11,8.92,2.41c.18.05.31.19.35.38Zm-3.69,8.89c.02.11.06.22.1.32.18.45.53.7,1.09.79.47.08.83-.03,1.11-.34,1.38-1.5.82-6.79.43-9.07l-9.2-2.49c-.14-.04-.26-.14-.32-.28-.06-.14-.06-.3,0-.45l3.15-6.99-3.8-.25-.66,7.82,10.19,2.94c.15.04.27.16.33.31.05.16.03.33-.05.47-.84,1.4-2.79,5.28-2.38,7.22Z"></path><path xmlns="http://www.w3.org/2000/svg" d="m388.97,277.36l-13.1-11.35s11.42-10.08,5.98-13.75c-5.43-3.67-8.36,14.95-8.36,14.95l11.85,9.93-8.85,9.87,6.84,3.66,5.64-13.3Z"></path><path xmlns="http://www.w3.org/2000/svg" d="m374.39,259.67c1.05-3.55,2.6-7.26,4.69-8.41,1.04-.57,2.15-.5,3.2.22,1.16.78,1.79,1.93,1.82,3.31.09,4.03-4.9,9.19-6.97,11.16l12.33,10.69c.28.24.37.69.21,1.06l-5.64,13.3c-.09.22-.26.39-.46.48-.2.09-.42.08-.61-.02l-6.84-3.66c-.23-.12-.38-.36-.41-.64-.03-.28.05-.57.24-.78l8.19-9.13-11.14-9.33c-.23-.19-.33-.51-.28-.83.11-.68.65-3.97,1.66-7.41Zm7.95-3.45c.13-.45.2-.89.19-1.29-.02-.81-.37-1.42-1.11-1.92-.62-.42-1.17-.47-1.72-.16-2.71,1.49-4.69,10.11-5.35,13.93l11.48,9.62c.18.15.29.38.3.64,0,.26-.08.51-.25.7l-8.04,8.97,5.15,2.76,5.01-11.82-12.62-10.94c-.19-.16-.29-.42-.29-.69,0-.27.12-.53.32-.71,1.76-1.56,5.98-5.85,6.93-9.09Z"></path><path xmlns="http://www.w3.org/2000/svg" d="m76.29,201.89l10.69,12.1s-12.63,7.61-8.03,11.69c4.61,4.07,10.5-12.45,10.5-12.45l-9.72-10.64,10.13-7.77-5.96-4.26-7.62,11.33Z"></path><path xmlns="http://www.w3.org/2000/svg" d="m82.94,226.08c-.49.39-.99.69-1.49.87-1.09.38-2.14.16-3.04-.63-.98-.87-1.4-2-1.2-3.26.58-3.67,6.23-7.69,8.54-9.19l-10.06-11.39c-.23-.26-.24-.67-.02-.99l7.62-11.33c.13-.19.32-.32.52-.37.21-.05.42-.01.58.1l5.96,4.26c.2.14.3.38.29.64s-.13.54-.36.68l-9.37,7.18,9.13,10c.19.2.24.51.13.8-.39,1.08-3.53,9.64-7.24,12.65Zm.32-8.54c-2.15,1.74-4.24,3.86-4.52,5.6-.12.74.12,1.34.75,1.89.53.46,1.04.59,1.63.38,2.84-.99,6.18-8.55,7.45-11.94l-9.42-10.3c-.15-.16-.21-.39-.18-.62.03-.23.18-.43.35-.6l9.21-7.06-4.48-3.21-6.77,10.06,10.3,11.66c.15.17.21.42.16.67-.05.25-.21.47-.43.6-.93.56-2.5,1.61-4.05,2.87Z"></path><path xmlns="http://www.w3.org/2000/svg" d="m211.28,356.83l-11.57-5.84s7.92-7,4.05-8.82c-4.97-2.34-5.78,9.66-5.78,9.66l12.83,6.4.48-1.4Z"></path><path xmlns="http://www.w3.org/2000/svg" d="m201.23,341.68c.84-.46,1.77-.45,2.76.02.78.37,1.24.97,1.33,1.74.29,2.42-3.25,6.03-4.71,7.42l10.92,5.51c.22.11.33.37.25.62l-.48,1.4c-.05.15-.16.26-.31.33-.15.06-.31.06-.45-.01l-12.83-6.4c-.18-.09-.29-.28-.27-.48.02-.33.58-8.22,3.66-10.07.04-.02.08-.05.12-.07Zm9.4,15.42l-11.19-5.64c-.15-.08-.25-.22-.27-.39-.02-.17.05-.34.18-.46,1.45-1.28,5.15-5.03,4.92-7.01-.05-.43-.29-.73-.77-.95-.71-.34-1.34-.33-1.88,0-2.04,1.22-2.9,6.53-3.1,8.87l11.97,5.98.13-.38Z"></path><path xmlns="http://www.w3.org/2000/svg" d="m115.25,259.9l-4.25,11.95s-8.85-7.11-10.13-3.13c-1.65,5.12,11.32,4.75,11.32,4.75l4.64-13.24-1.58-.33Z"></path><path xmlns="http://www.w3.org/2000/svg" d="m102.85,272.68c-.81-.34-1.5-.77-1.97-1.31-.71-.81-.9-1.76-.55-2.83.26-.81.82-1.32,1.63-1.48,2.54-.51,7.01,2.61,8.74,3.92l4.01-11.27c.08-.23.34-.36.62-.3l1.58.33c.17.04.32.13.41.27.09.14.12.3.07.44l-4.64,13.24c-.07.19-.25.31-.47.32-.29,0-5.96.15-9.42-1.32Zm1.95-4.1c-.97-.41-1.85-.63-2.49-.5-.45.09-.73.36-.89.85-.24.73-.13,1.34.32,1.85,1.66,1.89,7.48,2.22,10.02,2.2l4.33-12.36-.43-.09-4.11,11.55c-.06.16-.2.27-.37.31-.18.03-.37-.02-.52-.14-1.12-.9-3.69-2.74-5.85-3.66Z"></path><path xmlns="http://www.w3.org/2000/svg" d="m365.39,367.93l-13.88.58s3.53-9.56-1.04-9.26c-5.87.39-.11,10.77-.11,10.77l15.34-.7-.32-1.39Z"></path><path xmlns="http://www.w3.org/2000/svg" d="m349.84,370.21c-.4-.73-3.82-7.18-2.04-10.06.53-.85,1.41-1.32,2.64-1.4.92-.06,1.68.22,2.18.82,1.57,1.89.27,6.56-.34,8.4l13.09-.55c.27-.01.51.16.56.4l.32,1.39c.03.15,0,.3-.11.42-.1.12-.25.19-.42.2l-15.34.7c-.22.01-.42-.1-.52-.27l-.03-.06Zm2.07-9.74c-.05-.1-.11-.19-.18-.27-.28-.33-.67-.47-1.23-.43-.84.06-1.41.34-1.74.88-1.23,1.98.86,6.81,1.94,8.85l14.32-.65-.09-.38-13.41.56c-.18,0-.36-.07-.46-.2-.11-.13-.14-.31-.08-.47.61-1.66,1.89-6.12.93-7.89Z"></path><path xmlns="http://www.w3.org/2000/svg" d="m99.93,344.19l16.86-4.8-1.09-4.38-.64.17-2.95-12.24s11.14,2.05,9.87-2.69c-1.63-6.09-11.75,1.75-11.75,1.75l3.33,13.58-12.39,3.33-3.06-12.7s11.14,2.05,9.87-2.69c-1.63-6.09-11.75,1.75-11.75,1.75l3.44,14.04-.86.23,1.12,4.64Z"></path><path xmlns="http://www.w3.org/2000/svg" d="m101.66,321.28c1.7-.67,3.45-1.02,4.82-.49.73.29,1.7.97,2.13,2.6.34,1.25-.07,2.06-.47,2.52-1.72,1.98-6.93,1.47-9.16,1.15l2.65,11,11.11-2.99-3.17-12.94c-.06-.27.02-.54.23-.69.71-.55,7.06-5.35,10.68-3.93.73.29,1.7.97,2.13,2.6.34,1.25-.07,2.06-.47,2.52-1.72,1.97-6.93,1.47-9.16,1.15l2.54,10.55c.16-.03.34,0,.49.1.16.1.28.27.33.45l1.09,4.38c.09.36-.1.69-.43.8l-16.86,4.8c-.18.05-.37.02-.54-.08-.17-.1-.28-.27-.33-.46l-1.12-4.64c-.09-.36.11-.71.44-.8l.26-.07-3.28-13.4c-.06-.27.02-.54.23-.69.44-.34,3.07-2.33,5.87-3.44Zm4.61,4.22c.36-.14.65-.33.85-.55.18-.2.39-.55.2-1.27-.22-.83-.63-1.36-1.25-1.6-2.34-.92-7.08,2.02-9.1,3.52l3.33,13.59c.09.36-.11.7-.44.8l-.26.07.79,3.27,15.59-4.44-.75-3.03c-.17.04-.35,0-.5-.1-.16-.1-.28-.27-.33-.46l-2.95-12.24c-.05-.22,0-.45.15-.61.14-.16.36-.23.58-.19,2.81.52,7.72.81,8.95-.59.18-.2.39-.55.2-1.27-.22-.83-.63-1.36-1.25-1.6-2.35-.92-7.08,2.02-9.1,3.51l3.22,13.14c.09.36-.13.72-.44.8l-12.39,3.33c-.18.05-.37.02-.53-.09-.16-.1-.28-.27-.33-.46l-3.06-12.7c-.05-.22,0-.45.15-.61.14-.16.36-.23.58-.19,2.36.43,6.2.71,8.1-.04Z"></path><path xmlns="http://www.w3.org/2000/svg" d="m274.73,348.29l7.32,20.09,4.61-1.81-.27-.77,12.88-4.93s-.82,13.83,4.15,11.77c6.39-2.65-3.37-14.17-3.37-14.17l-14.29,5.54-5.17-14.79,13.36-5.12s-.82,13.83,4.15,11.77c6.39-2.65-3.37-14.17-3.37-14.17l-14.76,5.73-.36-1.03-4.89,1.88Z"></path><path xmlns="http://www.w3.org/2000/svg" d="m306.22,370.44s-.01.05-.02.08c-.22.93-.84,2.18-2.55,2.89-1.32.55-2.24.14-2.78-.3-2.35-1.89-2.46-8.31-2.4-11.08l-11.11,4.25c.06.2.04.41-.04.61-.09.21-.25.37-.45.45l-4.61,1.81c-.37.15-.78-.05-.92-.44l-7.32-20.09c-.08-.21-.07-.45.02-.66.09-.21.26-.38.46-.45l4.89-1.88c.38-.15.78.05.92.45l.11.31,14.09-5.47c.28-.11.58-.03.78.2.68.81,6.61,7.97,5.61,12.56l-.02.08c-.22.93-.84,2.18-2.55,2.89-1.32.55-2.24.14-2.78-.3-2.35-1.89-2.46-8.31-2.4-11.08l-11.58,4.44,4.63,13.26,13.61-5.28c.28-.11.58-.03.78.2.68.81,6.61,7.98,5.62,12.56Zm-20.56-4.81c.01-.06.03-.12.06-.17.09-.21.26-.37.45-.45l12.88-4.93c.24-.09.49-.05.68.11.19.16.3.42.28.69-.2,3.49.1,9.53,1.77,10.87.24.19.65.42,1.4.1.87-.36,1.39-.92,1.57-1.7.68-3.03-3.08-8.43-4.95-10.74l-13.82,5.36c-.38.15-.78-.05-.92-.45l-5.17-14.79c-.07-.21-.06-.45.03-.66.09-.21.26-.37.45-.45l13.36-5.12c.24-.09.49-.05.68.11.19.16.3.42.28.69-.2,3.49.1,9.53,1.77,10.87.24.19.65.42,1.4.1.87-.36,1.39-.92,1.57-1.7v-.05c.66-2.98-3.09-8.39-4.95-10.69l-14.3,5.55c-.38.15-.78-.05-.92-.45l-.11-.31-3.44,1.32,6.76,18.57,3.19-1.25c-.04-.14-.05-.3-.01-.45Z"></path><path xmlns="http://www.w3.org/2000/svg" d="m213.06,274.28l-13.37,13.58,2.49,3.29.51-.51,6.87,9.24s-10.63,4.34-7.86,7.84c3.56,4.51,9.86-8.05,9.86-8.05l-7.67-10.22,9.89-9.81,7.13,9.58s-10.63,4.34-7.86,7.84c3.56,4.51,9.86-8.05,9.86-8.05l-7.93-10.56.69-.68-2.61-3.5Z"></path><path xmlns="http://www.w3.org/2000/svg" d="m221.47,292.81c-1.6,2.49-3.92,5.44-6.14,5.88-.75.15-1.85.07-2.8-1.13-.73-.93-.65-1.87-.45-2.5.84-2.7,5.67-5.14,7.77-6.08l-6.18-8.31-8.87,8.8,7.31,9.74c.15.2.16.49.04.74-.44.88-4.44,8.66-8.16,9.4-.75.15-1.85.07-2.8-1.13-.73-.93-.65-1.87-.45-2.5.84-2.7,5.67-5.14,7.77-6.08l-5.92-7.97c-.14.12-.3.19-.47.19-.18,0-.34-.08-.45-.22l-2.49-3.29c-.2-.27-.16-.68.11-.95l13.36-13.58c.14-.14.32-.22.51-.22.18,0,.35.08.45.23l2.61,3.5c.2.27.15.69-.12.95l-.21.21,7.57,10.08c.15.2.16.49.04.74-.18.36-.94,1.83-2.02,3.52Zm-7.88,1.98c-.12.19-.22.38-.27.56-.09.28-.16.71.26,1.24.49.62,1.03.86,1.66.73,2.41-.48,5.61-5.71,6.89-8.15l-7.68-10.23c-.2-.27-.16-.68.12-.95l.21-.21-1.84-2.47-12.35,12.56,1.72,2.28c.14-.12.31-.19.48-.19.18,0,.34.08.45.23l6.87,9.24c.12.17.16.4.08.63-.07.22-.24.41-.45.49-2.68,1.1-7.16,3.56-7.77,5.47-.09.28-.15.71.26,1.23.49.62,1.03.86,1.66.73,2.41-.48,5.6-5.71,6.89-8.15l-7.43-9.89c-.2-.27-.15-.69.12-.95l9.89-9.81c.14-.14.32-.22.5-.22.18,0,.34.08.45.23l7.13,9.59c.12.17.16.4.08.63-.07.22-.24.41-.45.49-2.43.99-6.33,3.09-7.5,4.91Z"></path><path xmlns="http://www.w3.org/2000/svg" d="m266.89,17.73l-3.55-11.43s9.52-.37,7.71-4.57c-1.81-4.2-9.4,4.18-9.4,4.18l3.32,10.16-8.04,1.35,2.58,4.8,7.38-4.49Z"></path><path xmlns="http://www.w3.org/2000/svg" d="m269.65.01c.06,0,.13.02.19.03.75.15,1.34.65,1.69,1.47.39.9.36,1.76-.06,2.49-1.24,2.13-5.65,2.68-7.42,2.81l3.34,10.76c.08.25-.02.51-.23.64l-7.38,4.49c-.12.08-.27.09-.41.05-.14-.04-.26-.14-.33-.27l-2.58-4.8c-.08-.16-.09-.35-.02-.51.07-.16.21-.27.38-.3l7.44-1.25-3.12-9.55c-.06-.19-.02-.41.11-.55.55-.61,5.38-5.84,8.39-5.51Zm-3.4,17.46l-3.42-11.01c-.05-.16-.03-.34.07-.48.09-.14.24-.22.41-.23,1.68-.07,6.25-.61,7.26-2.34.25-.43.25-.89,0-1.46-.21-.48-.49-.74-.9-.82-.04,0-.08-.01-.12-.02-2-.22-5.74,3.29-7.3,4.95l3.22,9.85c.05.15.03.32-.04.46-.08.14-.21.23-.36.26l-7.31,1.22,1.94,3.61,6.56-3.99Z"></path><path xmlns="http://www.w3.org/2000/svg" d="m87.16,52.81l5.48-10.46s6.71,6.67,8.38,2.46c1.67-4.21-9.26-3.96-9.26-3.96l-4.76,9.42-6.38-4.92-1.56,5.18,8.1,2.28Z"></path><path xmlns="http://www.w3.org/2000/svg" d="m91.75,40.31h.01c.81-.02,7.97-.11,9.6,2.46.41.65.46,1.42.13,2.24-.36.9-.96,1.47-1.76,1.67-2.31.55-5.68-2.27-6.97-3.46l-5.16,9.85c-.12.23-.37.34-.59.27l-8.1-2.28c-.13-.04-.25-.13-.31-.26-.06-.13-.08-.28-.03-.42l1.56-5.19c.05-.17.18-.31.34-.36.16-.06.33-.03.47.07l5.9,4.55,4.48-8.85c.09-.18.26-.29.44-.3Zm7.45,5.35c.11,0,.22-.02.33-.05.46-.11.78-.43,1.01-1,.19-.48.18-.87-.04-1.21-1.07-1.69-6.18-2.01-8.43-2l-4.61,9.12c-.07.14-.2.24-.34.28-.15.04-.3,0-.42-.09l-5.8-4.48-1.17,3.9,7.19,2.02,5.28-10.08c.08-.15.22-.26.37-.28.16-.03.32.02.43.14,1.12,1.11,4.28,3.8,6.21,3.71Z"></path><path xmlns="http://www.w3.org/2000/svg" d="m304.65,174.28l17.5-4.42s-.85,15.3,5.66,12.87c6.51-2.43-4.83-15.53-4.83-15.53l-15.58,4.19-.82-13.04-7.5,3.61,5.58,12.32Z"></path><path xmlns="http://www.w3.org/2000/svg" d="m329.92,182.17c-.44.59-1.06,1.05-1.86,1.35-1.39.52-2.66.39-3.68-.38-2.97-2.23-3.14-9.35-3.09-12.2l-16.47,4.16c-.38.1-.76-.09-.91-.44l-5.58-12.32c-.09-.2-.1-.44-.02-.66.08-.22.24-.39.45-.5l7.5-3.61c.25-.12.53-.11.76.02.23.13.37.37.39.65l.76,12.06,14.64-3.94c.3-.08.61.01.8.24.84.97,8.19,9.63,6.89,14.36-.12.44-.31.85-.57,1.2Zm-24.78-8.88l16.86-4.26c.25-.06.51,0,.7.16s.3.41.28.67c-.15,2.69,0,10.08,2.42,11.89.6.45,1.29.5,2.17.17.74-.27,1.17-.7,1.34-1.34.85-3.11-3.95-9.7-6.24-12.44l-15.09,4.06c-.24.06-.48.02-.67-.12s-.31-.36-.33-.61l-.75-11.85-5.65,2.71,4.96,10.95Z"></path><path xmlns="http://www.w3.org/2000/svg" d="m137.06,104.91l11.42-14.76s8.88,13.41,12.64,7.26c3.75-6.15-13.63-10.02-13.63-10.02l-10.01,13.36-8.82-10.45-3.83,7.77,12.24,6.85Z"></path><path xmlns="http://www.w3.org/2000/svg" d="m161.19,92.66c.45.5.8,1.03,1.02,1.58.48,1.21.35,2.48-.38,3.68-.8,1.31-1.91,2-3.22,2.01-3.8,0-8.4-5.89-10.14-8.33l-10.75,13.9c-.25.32-.67.4-1.01.21l-12.24-6.85c-.2-.11-.36-.31-.43-.54-.07-.23-.05-.49.05-.7l3.83-7.77c.13-.26.36-.43.63-.46s.54.09.72.3l8.16,9.67,9.41-12.55c.19-.26.5-.37.8-.3,1.14.25,10.16,2.36,13.55,6.16Zm-8.74,1.19c1.96,2.2,4.32,4.27,6.11,4.26.77,0,1.36-.39,1.87-1.22.43-.7.51-1.33.25-1.98-1.26-3.15-9.27-5.68-12.84-6.54l-9.7,12.94c-.15.2-.38.32-.62.32-.24,0-.46-.11-.64-.31l-8.02-9.5-2.88,5.85,10.87,6.09,11-14.22c.16-.21.41-.33.67-.31.26.02.5.16.65.39.66.99,1.87,2.64,3.28,4.22Z"></path><path xmlns="http://www.w3.org/2000/svg" d="m164.36,33.93l-4.78,12.55s-7.8-8.59-9.26-4.4c-1.88,5.39,10.27,6.27,10.27,6.27l5.23-13.91-1.46-.52Z"></path><path xmlns="http://www.w3.org/2000/svg" d="m150.06,44.82c-.54-.91-.62-1.92-.25-3,.3-.85.86-1.35,1.62-1.45,2.41-.31,6.38,3.52,7.92,5.12l4.51-11.84c.09-.24.34-.36.6-.27l1.46.52c.15.05.28.17.36.33.08.16.09.33.03.48l-5.23,13.91c-.07.2-.25.31-.46.3-.34-.02-8.34-.64-10.48-3.98-.03-.04-.05-.09-.08-.13Zm14.63-10.19l-4.62,12.13c-.06.16-.2.27-.37.29s-.35-.06-.48-.2c-1.43-1.57-5.56-5.59-7.52-5.34-.42.05-.71.32-.89.83-.27.77-.21,1.44.17,2.04,1.42,2.22,6.85,3.15,9.23,3.37l4.88-12.99-.4-.14Z"></path><path xmlns="http://www.w3.org/2000/svg" d="m222.95,87.36l-.96,13.06s-9.33-3.67-9.53.63c-.26,5.53,10.93.5,10.93.5l1-14.44-1.45.25Z"></path><path xmlns="http://www.w3.org/2000/svg" d="m215.09,104.14c-.78-.04-1.48-.2-2.02-.55-.8-.52-1.18-1.38-1.13-2.53.04-.87.41-1.57,1.08-2.02,2.09-1.41,6.7,0,8.5.63l.9-12.32c.02-.25.22-.47.47-.51l1.45-.25c.15-.02.31.02.42.12.11.1.17.25.16.4l-1,14.44c-.01.2-.14.39-.34.47-.25.11-5.15,2.29-8.5,2.13Zm.76-4.66c-.93-.05-1.76.06-2.28.41-.37.25-.55.61-.58,1.14-.04.79.19,1.34.7,1.67,1.87,1.23,7.02-.55,9.22-1.5l.93-13.48-.4.07-.93,12.62c-.01.17-.11.33-.26.43-.15.1-.33.12-.48.06-1.18-.46-3.83-1.32-5.93-1.42Z"></path><path xmlns="http://www.w3.org/2000/svg" d="m282.71,229.29l-5.84-13.13-3.14,1.36.21.5-8.78,3.73s.05-9.25-3.33-7.7c-4.35,1.99,2.87,9.33,2.87,9.33l9.74-4.19,4.15,9.67-9.11,3.87s.05-9.25-3.33-7.7c-4.35,1.99,2.87,9.33,2.87,9.33l10.06-4.33.29.67,3.33-1.42Z"></path><path xmlns="http://www.w3.org/2000/svg" d="m265.3,230.4c-.73-1.3-1.23-2.68-1.01-3.85.12-.62.5-1.48,1.67-2.01.9-.41,1.55-.17,1.95.1,1.71,1.18,2.02,5.46,2.08,7.3l7.89-3.36-3.72-8.68-9.28,3.99c-.19.08-.41.04-.55-.11-.51-.52-4.95-5.14-4.37-8.22.12-.63.5-1.48,1.67-2.01.9-.41,1.55-.17,1.95.1,1.71,1.18,2.02,5.46,2.08,7.3l7.57-3.22c-.05-.13-.04-.28,0-.41.05-.14.16-.26.3-.31l3.14-1.36c.26-.11.54.01.66.26l5.84,13.13c.06.14.06.3,0,.44-.06.15-.16.26-.3.32l-3.33,1.42c-.26.11-.55-.01-.66-.27l-.09-.2-9.6,4.13c-.19.08-.41.04-.55-.11-.32-.32-2.16-2.23-3.36-4.38Zm2.55-4.2c-.16-.28-.33-.49-.53-.63-.17-.12-.47-.26-.98-.02-.59.27-.93.66-1.03,1.18-.38,2,2.46,5.51,3.85,6.99l9.75-4.19c.26-.11.54.01.66.27l.09.2,2.35-1-5.4-12.14-2.17.94c.05.13.05.28,0,.41-.06.14-.16.26-.3.31l-8.78,3.73c-.16.07-.34.05-.48-.05-.14-.1-.22-.27-.22-.45.01-2.33-.42-6.34-1.64-7.18-.17-.12-.47-.26-.98-.02-.59.27-.93.66-1.03,1.19-.38,2,2.46,5.51,3.85,6.99l9.42-4.05c.26-.11.55.03.66.27l4.15,9.68c.06.14.06.3,0,.44-.06.14-.16.26-.3.31l-9.11,3.87c-.16.07-.34.05-.48-.05-.14-.1-.22-.27-.22-.45.01-1.96-.29-5.1-1.11-6.56Z"></path><path xmlns="http://www.w3.org/2000/svg" d="m524.82,143.3l-12.75,6.3,1.4,3.06.49-.23,3.83,8.57s-9.06.3-7.48,3.6c2.04,4.24,9.08-3.21,9.08-3.21l-4.3-9.5,9.4-4.49,3.98,8.89s-9.06.3-7.48,3.6c2.04,4.24,9.08-3.21,9.08-3.21l-4.44-9.82.65-.31-1.46-3.25Z"></path><path xmlns="http://www.w3.org/2000/svg" d="m526.25,160.53c-1.26.77-2.6,1.32-3.75,1.15-.61-.09-1.46-.44-2.01-1.58-.42-.87-.2-1.54.06-1.94,1.12-1.74,5.31-2.22,7.11-2.34l-3.45-7.71-8.43,4.02,4.1,9.06c.08.19.05.4-.09.55-.49.52-4.93,5.11-7.97,4.65-.62-.09-1.46-.44-2.01-1.58-.42-.87-.2-1.54.06-1.94,1.12-1.74,5.31-2.22,7.11-2.34l-3.31-7.39c-.13.05-.27.05-.4,0-.14-.05-.25-.15-.31-.28l-1.4-3.06c-.11-.25,0-.53.24-.66l12.76-6.3c.13-.07.29-.08.43-.03.14.05.26.15.32.29l1.46,3.25c.11.25,0,.54-.25.66l-.2.09,4.24,9.37c.08.19.05.4-.09.55-.31.33-2.15,2.23-4.22,3.5Zm-4.17-2.37c-.27.17-.48.35-.6.55-.12.18-.24.47,0,.97.28.58.67.9,1.18.98,1.97.3,5.35-2.65,6.77-4.08l-4.3-9.51c-.11-.25,0-.54.25-.66l.2-.09-1.03-2.29-11.79,5.82.97,2.12c.13-.05.27-.06.41-.01.14.05.25.15.31.28l3.83,8.57c.07.16.06.34-.04.48-.09.14-.26.23-.43.24-2.29.08-6.21.66-7.01,1.9-.12.18-.24.47,0,.97.28.58.67.9,1.18.98,1.97.3,5.35-2.65,6.77-4.08l-4.16-9.2c-.11-.25.02-.55.25-.66l9.4-4.48c.13-.06.29-.07.43-.02.14.05.25.15.31.28l3.98,8.89c.07.16.06.34-.04.48-.09.14-.26.23-.43.24-1.92.06-5,.49-6.4,1.35Z"></path><path xmlns="http://www.w3.org/2000/svg" d="m436.07,33.91l13.52,2.11.68-3.39-.51-.09,1.96-9.44s7.2,5.01,7.87,1.32c.86-4.75-8.89-2.58-8.89-2.58l-2.14,10.49-9.87-1.69,2.03-9.79s7.2,5.01,7.87,1.32c.86-4.75-8.89-2.58-8.89-2.58l-2.21,10.84-.68-.12-.74,3.58Z"></path><path xmlns="http://www.w3.org/2000/svg" d="m459.4,22.01l.04.04c.42.44.88,1.22.65,2.49-.18.98-.73,1.41-1.16,1.59-1.87.81-5.39-1.22-6.86-2.16l-1.69,8.14c.13.03.24.11.31.22.08.12.11.27.08.42l-.68,3.39c-.06.28-.3.46-.57.41l-13.52-2.11c-.14-.02-.27-.11-.35-.23-.08-.12-.11-.28-.08-.43l.74-3.58c.06-.28.31-.46.58-.41l.21.04,2.11-10.35c.04-.2.19-.36.39-.41.68-.15,6.7-1.41,8.82.69l.04.04c.42.44.88,1.22.65,2.49-.18.98-.73,1.41-1.16,1.59-1.87.81-5.39-1.22-6.86-2.16l-1.76,8.49,8.85,1.52,2.04-10c.04-.2.19-.36.39-.41.68-.15,6.7-1.41,8.82.69Zm-10,10.92s-.05-.06-.07-.09c-.08-.12-.11-.28-.08-.42l1.96-9.44c.04-.17.15-.31.31-.38.16-.07.33-.05.47.05,1.82,1.26,5.2,3.05,6.53,2.48.19-.08.46-.26.56-.81.12-.65,0-1.14-.35-1.51l-.02-.02c-1.38-1.37-5.66-.86-7.58-.48l-2.07,10.15c-.06.28-.31.46-.58.41l-9.87-1.69c-.14-.03-.27-.11-.35-.23-.08-.12-.11-.28-.08-.42l2.03-9.79c.04-.17.15-.31.31-.38.16-.07.33-.05.47.05,1.82,1.26,5.2,3.05,6.53,2.48.19-.08.46-.26.56-.81.12-.65,0-1.14-.35-1.51-1.39-1.36-5.67-.88-7.6-.5l-2.14,10.5c-.06.28-.31.46-.58.41l-.21-.04-.52,2.52,12.49,1.95.47-2.34c-.09-.02-.18-.07-.25-.14Z"></path><path xmlns="http://www.w3.org/2000/svg" d="m63.58,126.26l12.65,5.66,1.62-3.04-.48-.22,4.58-8.45s5.64,6.71,7.34,3.38c2.18-4.29-7.98-4.85-7.98-4.85l-5.05,9.41-9.19-4.27,4.75-8.77s5.64,6.71,7.34,3.38c2.18-4.29-7.98-4.85-7.98-4.85l-5.22,9.72-.64-.3-1.74,3.21Z"></path><path xmlns="http://www.w3.org/2000/svg" d="m89.88,121.38c.26.54.42,1.37-.12,2.44-.45.88-1.11,1.14-1.59,1.2-2.06.27-4.94-2.61-6.11-3.91l-3.95,7.29c.12.06.2.17.25.3.04.14.03.29-.04.42l-1.62,3.04c-.13.25-.43.35-.68.24l-12.65-5.66c-.13-.06-.23-.18-.28-.31-.05-.14-.03-.3.04-.43l1.74-3.21c.13-.25.43-.35.68-.24l.19.09,4.98-9.28c.1-.18.29-.29.5-.28.72.04,7.03.47,8.48,3.08.29.53.52,1.4-.07,2.55-.45.88-1.11,1.14-1.59,1.2-2.06.27-4.94-2.61-6.11-3.91l-4.12,7.6,8.24,3.83,4.81-8.97c.1-.18.29-.29.5-.28.72.04,7.03.47,8.48,3.08.02.03.04.07.06.11Zm-12.98,7.52s-.02-.05-.03-.07c-.04-.14-.03-.29.04-.42l4.58-8.45c.08-.15.24-.26.41-.28.17-.02.34.05.45.18,1.42,1.69,4.23,4.31,5.7,4.12.21-.03.52-.12.78-.62.3-.59.32-1.1.08-1.53-.94-1.7-5.31-2.37-7.3-2.53l-4.89,9.1c-.13.25-.43.35-.68.24l-9.19-4.27c-.13-.06-.23-.17-.27-.31-.04-.14-.03-.29.04-.42l4.75-8.77c.08-.15.24-.26.41-.28.17-.02.34.05.45.18,1.42,1.69,4.23,4.31,5.7,4.12.21-.03.52-.12.78-.62.3-.59.32-1.1.08-1.53-.93-1.69-5.31-2.37-7.3-2.53l-5.06,9.42c-.13.25-.43.35-.68.24l-.2-.09-1.22,2.26,11.69,5.23,1.12-2.11c-.1-.05-.17-.13-.22-.23Z"></path></svg>